<?xml version="1.0" encoding="UTF-8"?>
<svg id="IconsRepoEditor" width="92px" height="92px" enable-background="new 0 0 257.832 257.832" fill="#000000" stroke="#000000" stroke-width="0" version="1.1" viewBox="0 0 257.83 257.83" xml:space="preserve" xmlns="http://www.w3.org/2000/svg" xmlns:cc="http://creativecommons.org/ns#" xmlns:dc="http://purl.org/dc/elements/1.1/" xmlns:rdf="http://www.w3.org/1999/02/22-rdf-syntax-ns#"><metadata><rdf:RDF><cc:Work rdf:about=""><dc:format>image/svg+xml</dc:format><dc:type rdf:resource="http://purl.org/dc/dcmitype/StillImage"/><dc:title/></cc:Work></rdf:RDF></metadata>
  <path d="m211.13 141.76c-3.866-22.86-20.326-25.967-27.416-26.223-2.007-0.073-3.836-1.129-4.912-2.824-5.367-8.456-12.645-10.681-18.813-10.681-2.824-1e-3 -5.414 0.465-7.485 1.013-0.608 0.16-1.227 0.239-1.839 0.239-2.178 0-4.277-0.994-5.588-2.811-5.28-7.315-12.171-9.293-18.078-9.293-1.58 0-3.09 0.142-4.479 0.36-0.371 0.059-0.739 0.087-1.1 0.087-3.78 0-6.969-3.07-6.974-6.987l-0.05-42.287c-0.014-10.927-8.209-16.387-16.404-16.387-8.211 0-16.422 5.479-16.408 16.427 0.022 18.357 0.089 73.493 0.108 90.106 4e-3 2.808-1.675 5.345-4.265 6.428-32.541 13.602 7.643 74.619 14.84 85.076 0.702 1.02 1.118 2.203 1.211 3.438l1.759 23.661c0.274 3.65 3.316 6.724 6.977 6.724h9e-3l78.623-0.349c3.509-5e-3 6.471-2.732 6.928-6.211l3.202-24.453c0.136-1.031 0.51-2.053 1.074-2.927 21.012-32.478 22.663-60.937 19.08-82.126z" fill="#fff"/> <path d="m57.902 75.382h-34.96v-64.457h155.13v64.457h-41.515" fill="none" stroke="#fff" stroke-width="10.593"/></svg>
