<?xml version="1.0" encoding="UTF-8"?>
<!-- Created with Inkscape (http://www.inkscape.org/) -->
<svg width="26mm" height="26mm" version="1.1" viewBox="0 0 26 26" xmlns="http://www.w3.org/2000/svg" xmlns:cc="http://creativecommons.org/ns#" xmlns:dc="http://purl.org/dc/elements/1.1/" xmlns:rdf="http://www.w3.org/1999/02/22-rdf-syntax-ns#">
 <metadata>
  <rdf:RDF>
   <cc:Work rdf:about="">
    <dc:format>image/svg+xml</dc:format>
    <dc:type rdf:resource="http://purl.org/dc/dcmitype/StillImage"/>
    <dc:title/>
   </cc:Work>
  </rdf:RDF>
 </metadata>
 <g transform="translate(-42.185 -31.512)">
  <g transform="translate(-61.588 -70.266)">
   <path d="m129.77 114.78a13 13 0 0 1-13 13 13 13 0 0 1-13-13 13 13 0 0 1 13-13 13 13 0 0 1 13 13z" fill="#d40000"/>
   <g transform="matrix(.26458 0 0 .26458 62.218 57.592)" fill="#fff" style="font-feature-settings:normal;font-variant-caps:normal;font-variant-ligatures:normal;font-variant-numeric:normal" aria-label="16">
    <path d="m195.17 231.37v-23.719q-0.60938 0.5625-1.5 1.125-0.86719 0.53906-1.8281 1.0312-0.96094 0.46875-1.8984 0.86719-0.9375 0.375-1.6406 0.58594v-4.6172q0.79687-0.32813 1.8281-0.98438 1.0547-0.65625 2.0391-1.3828 0.98437-0.75 1.7812-1.4297 0.79687-0.67968 1.0781-1.0547h5.0391v29.578z" style="font-feature-settings:normal;font-variant-caps:normal;font-variant-ligatures:normal;font-variant-numeric:normal"/>
    <path d="m224.08 221.06q0 2.6719-0.91406 4.6172-0.91407 1.9453-2.4141 3.2109-1.5 1.2656-3.4688 1.875-1.9453 0.60937-4.0078 0.60937t-3.9609-0.63281q-1.8984-0.65625-3.3516-2.2969-1.4531-1.6406-2.3203-4.4531-0.86719-2.8359-0.86719-7.2188 0-4.3594 0.84375-7.3828 0.84375-3.0469 2.3203-4.9219 1.5-1.875 3.5625-2.7188 2.0859-0.84375 4.5469-0.84375 1.9922 0 3.6328 0.5625 1.6406 0.53906 2.8125 1.5 1.1719 0.96094 1.8047 2.25t0.63281 2.7891h-5.0859q0-0.65625-0.1875-1.3594-0.16406-0.72656-0.60937-1.2891-0.44531-0.58594-1.1719-0.96094-0.72656-0.375-1.8281-0.375-1.2656 0-2.2734 0.39844-1.0078 0.39843-1.7578 1.5234t-1.2891 3.1406q-0.51563 2.0156-0.86719 5.25 0.46875-0.5625 1.125-1.0781 0.65625-0.51562 1.5234-0.89062 0.86718-0.39844 1.9453-0.63281 1.0781-0.23438 2.3672-0.23438 0.98437 0 2.0625 0.21094 1.0781 0.21094 2.1094 0.67969t1.9453 1.2188q0.9375 0.72656 1.6172 1.8047 0.70313 1.0547 1.1016 2.4609 0.42188 1.4062 0.42188 3.1875zm-5.0859 0.23438q0-1.3828-0.44531-2.6016-0.42188-1.2188-1.1719-2.1094-0.72656-0.91406-1.7344-1.4297-1.0078-0.53906-2.1562-0.53906-1.125 0-2.1328 0.53906-1.0078 0.51563-1.7812 1.4297-0.75 0.89062-1.1953 2.1094-0.42187 1.2188-0.42187 2.6016 0 1.3828 0.42187 2.625 0.44532 1.2188 1.1953 2.1328 0.77343 0.91406 1.7812 1.4531 1.0078 0.51563 2.1328 0.51563 1.1484 0 2.1562-0.51563 1.0078-0.53906 1.7344-1.4531 0.75-0.91406 1.1719-2.1328 0.44531-1.2422 0.44531-2.625z" style="font-feature-settings:normal;font-variant-caps:normal;font-variant-ligatures:normal;font-variant-numeric:normal"/>
   </g>
  </g>
 </g>
</svg>
