<?xml version="1.0" encoding="UTF-8"?>
<!-- Created with Inkscape (http://www.inkscape.org/) -->
<svg width="26mm" height="26mm" version="1.1" viewBox="0 0 26 26" xmlns="http://www.w3.org/2000/svg" xmlns:cc="http://creativecommons.org/ns#" xmlns:dc="http://purl.org/dc/elements/1.1/" xmlns:rdf="http://www.w3.org/1999/02/22-rdf-syntax-ns#">
 <metadata>
  <rdf:RDF>
   <cc:Work rdf:about="">
    <dc:format>image/svg+xml</dc:format>
    <dc:type rdf:resource="http://purl.org/dc/dcmitype/StillImage"/>
    <dc:title/>
   </cc:Work>
  </rdf:RDF>
 </metadata>
 <g transform="translate(-14.214 -25.464)">
  <g transform="translate(-58.843 -76.313)">
   <path d="m99.058 114.78a13 13 0 0 1-13 13 13 13 0 0 1-13-13 13 13 0 0 1 13-13 13 13 0 0 1 13 13z" fill="#d40000"/>
   <g transform="matrix(.26458 0 0 .26458 31.655 57.48)" fill="#fff" style="font-feature-settings:normal;font-variant-caps:normal;font-variant-ligatures:normal;font-variant-numeric:normal" aria-label="15">
    <path d="m195.17 231.37v-23.719q-0.60938 0.5625-1.5 1.125-0.86719 0.53906-1.8281 1.0312-0.96094 0.46875-1.8984 0.86719-0.9375 0.375-1.6406 0.58594v-4.6172q0.79687-0.32813 1.8281-0.98438 1.0547-0.65625 2.0391-1.3828 0.98437-0.75 1.7812-1.4297 0.79687-0.67968 1.0781-1.0547h5.0391v29.578z" style="font-feature-settings:normal;font-variant-caps:normal;font-variant-ligatures:normal;font-variant-numeric:normal"/>
    <path d="m222.93 221.24q0 1.8281-0.60937 3.6328-0.60938 1.8047-1.9453 3.2578-1.3125 1.4297-3.375 2.3438-2.0391 0.89062-4.9219 0.89062-1.9219 0-3.3281-0.42187-1.4062-0.42188-2.4141-1.1016-1.0078-0.67968-1.6406-1.5234-0.63282-0.86719-1.0078-1.7109-0.35156-0.86719-0.49218-1.6406-0.14063-0.79687-0.14063-1.3359h4.6172q0.0937 0.82031 0.42187 1.6172 0.35157 0.77344 0.9375 1.3828 0.60938 0.60937 1.4297 0.98437 0.82031 0.35156 1.875 0.35156 1.4062 0 2.4375-0.51562 1.0312-0.53906 1.6875-1.4297 0.67969-0.91406 1.0078-2.1328 0.32813-1.2422 0.32813-2.6484 0-1.3828-0.30469-2.5078-0.28125-1.125-0.91406-1.8984-0.60938-0.79687-1.6172-1.2188-0.98437-0.42187-2.3906-0.42187-1.2422 0-2.1328 0.32812-0.89062 0.32813-1.5 0.89063-0.60937 0.5625-0.98437 1.3125-0.35156 0.72656-0.51563 1.5469h-3.75l0.5625-17.531h16.617v4.5703h-13.008l-0.32813 8.1562q0.72657-0.72656 1.4297-1.2422 0.72656-0.51563 1.5-0.84375 0.77344-0.32813 1.6172-0.46875 0.86719-0.14063 1.8281-0.14063 2.2031 0 3.8906 0.82031 1.6875 0.79688 2.8359 2.1328 1.1484 1.3125 1.7109 3.0234 0.58594 1.6875 0.58594 3.4922z" style="font-feature-settings:normal;font-variant-caps:normal;font-variant-ligatures:normal;font-variant-numeric:normal"/>
   </g>
  </g>
 </g>
</svg>
