<?xml version="1.0" encoding="UTF-8"?>
<!-- Created with Inkscape (http://www.inkscape.org/) -->
<svg width="26mm" height="26mm" version="1.1" viewBox="0 0 26 26" xmlns="http://www.w3.org/2000/svg" xmlns:cc="http://creativecommons.org/ns#" xmlns:dc="http://purl.org/dc/elements/1.1/" xmlns:rdf="http://www.w3.org/1999/02/22-rdf-syntax-ns#">
 <metadata>
  <rdf:RDF>
   <cc:Work rdf:about="">
    <dc:format>image/svg+xml</dc:format>
    <dc:type rdf:resource="http://purl.org/dc/dcmitype/StillImage"/>
    <dc:title/>
   </cc:Work>
  </rdf:RDF>
 </metadata>
 <g transform="translate(-2.1191 -37.56)">
  <g transform="translate(-101.65 -32.374)">
   <path d="m129.77 82.933a13 13 0 0 1-13 13 13 13 0 0 1-13-13 13 13 0 0 1 13-13 13 13 0 0 1 13 13z" fill="#d40000"/>
   <g transform="matrix(.26458 0 0 .26458 62.249 25.741)" fill="#fff" style="font-feature-settings:normal;font-variant-caps:normal;font-variant-ligatures:normal;font-variant-numeric:normal" aria-label="10">
    <path d="m195.17 231.37v-23.719q-0.60938 0.5625-1.5 1.125-0.86719 0.53906-1.8281 1.0312-0.96094 0.46875-1.8984 0.86719-0.9375 0.375-1.6406 0.58594v-4.6172q0.79687-0.32813 1.8281-0.98438 1.0547-0.65625 2.0391-1.3828 0.98437-0.75 1.7812-1.4297 0.79687-0.67968 1.0781-1.0547h5.0391v29.578z" style="font-feature-settings:normal;font-variant-caps:normal;font-variant-ligatures:normal;font-variant-numeric:normal"/>
    <path d="m223.85 216.16q0 3.1641-0.5625 5.9531-0.53906 2.7656-1.8047 4.8516-1.2422 2.0625-3.2578 3.2578-2.0156 1.1953-4.9453 1.1953-2.8828 0-4.875-1.1953-1.9922-1.1953-3.2578-3.2578-1.2422-2.0859-1.8047-4.8516-0.5625-2.7891-0.5625-5.9531 0-3.1641 0.5625-5.9531 0.58594-2.7891 1.8281-4.8516 1.2656-2.0625 3.2578-3.2578 1.9922-1.1953 4.8516-1.1953 2.9062 0 4.9219 1.1953 2.0156 1.1953 3.2578 3.2578 1.2656 2.0625 1.8281 4.8516t0.5625 5.9531zm-5.2266 0q0-2.3906-0.21094-4.5-0.1875-2.1094-0.77343-3.6562-0.5625-1.5703-1.6172-2.4609-1.0547-0.91407-2.7422-0.91407-1.6641 0-2.6953 0.91407-1.0312 0.89062-1.6172 2.4609-0.58594 1.5469-0.79687 3.6562-0.21094 2.1094-0.21094 4.5 0 2.3906 0.1875 4.5 0.21094 2.1094 0.79687 3.6797 0.58594 1.5469 1.6172 2.4609 1.0547 0.91406 2.7188 0.91406t2.6953-0.91406q1.0547-0.91406 1.6406-2.4609 0.58594-1.5703 0.79687-3.6797 0.21094-2.1094 0.21094-4.5z" style="font-feature-settings:normal;font-variant-caps:normal;font-variant-ligatures:normal;font-variant-numeric:normal"/>
   </g>
  </g>
 </g>
</svg>
