<?xml version="1.0" encoding="UTF-8"?>
<!-- Created with Inkscape (http://www.inkscape.org/) -->
<svg width="26mm" height="26mm" version="1.1" viewBox="0 0 26 26" xmlns="http://www.w3.org/2000/svg" xmlns:cc="http://creativecommons.org/ns#" xmlns:dc="http://purl.org/dc/elements/1.1/" xmlns:rdf="http://www.w3.org/1999/02/22-rdf-syntax-ns#">
 <metadata>
  <rdf:RDF>
   <cc:Work rdf:about="">
    <dc:format>image/svg+xml</dc:format>
    <dc:type rdf:resource="http://purl.org/dc/dcmitype/StillImage"/>
    <dc:title/>
   </cc:Work>
  </rdf:RDF>
 </metadata>
 <g transform="translate(-63.351 -27.732)">
  <g transform="translate(-71.393 -105.21)">
   <path d="m160.74 145.94a13 13 0 0 1-13 13 13 13 0 0 1-13-13 13 13 0 0 1 13-13 13 13 0 0 1 13 13z" fill="#ffc800"/>
   <g transform="matrix(.26458 0 0 .26458 93.329 88.756)" style="font-feature-settings:normal;font-variant-caps:normal;font-variant-ligatures:normal;font-variant-numeric:normal" aria-label="23">
    <path d="m205.5 209.15q0 2.5078-1.125 4.7109-1.1016 2.1797-3.1641 4.2891-2.0391 2.0859-4.9219 4.1953-2.8828 2.1094-6.3984 4.4531h15.023v4.5703h-20.062v-4.2188q4.5234-3.5625 7.5-6.2578 3-2.6953 4.7812-4.7812 1.7812-2.1094 2.5078-3.75 0.72656-1.6641 0.72656-3.1641 0-0.70313-0.21094-1.5-0.1875-0.82032-0.70312-1.5-0.51563-0.70313-1.4062-1.1484-0.89063-0.46875-2.25-0.46875-1.3828 0-2.3672 0.51562-0.96094 0.51563-1.5938 1.3125-0.60937 0.77344-0.9375 1.7344-0.30469 0.96094-0.375 1.875h-5.1328q0.28125-4.5703 2.9531-6.8438 2.6719-2.2734 7.5938-2.2734 2.2969 0 4.0781 0.58594t3 1.6641q1.2188 1.0781 1.8516 2.6016 0.63281 1.5234 0.63281 3.3984z" style="font-feature-settings:normal;font-variant-caps:normal;font-variant-ligatures:normal;font-variant-numeric:normal"/>
    <path d="m226.47 222.49q0 1.6172-0.63281 3.2109-0.60937 1.5938-1.9219 2.8594-1.2891 1.2422-3.3281 2.0391-2.0391 0.77344-4.875 0.77344t-4.6875-0.77344q-1.8516-0.79687-2.9531-1.9922-1.0781-1.2188-1.5234-2.6953-0.44531-1.4766-0.44531-2.8828h5.1328q0.0469 0.98438 0.375 1.8281 0.35156 0.84375 0.96094 1.4766 0.60937 0.63281 1.4531 0.98437 0.86719 0.35157 1.9219 0.35157 1.0547 0 2.0156-0.35157 0.98438-0.375 1.7344-1.0312 0.75-0.67968 1.1953-1.6172 0.44531-0.96094 0.44531-2.1328 0-0.46875-0.21094-1.3359-0.21093-0.89063-0.79687-1.7578-0.5625-0.89062-1.5703-1.5234-0.98438-0.65625-2.5312-0.65625h-2.625v-3.2578q2.5312 0 3.9609-0.46875 1.4297-0.49218 2.1562-1.2422 0.72657-0.75 0.89063-1.6406 0.1875-0.91406 0.1875-1.7344 0-0.84375-0.21094-1.6641-0.21094-0.82031-0.70312-1.4766-0.46875-0.65625-1.2656-1.0547-0.79687-0.42187-1.9922-0.42187-2.3438 0-3.5156 1.0781-1.1484 1.0547-1.2891 3.2344h-5.1328q0.0937-1.9219 0.86719-3.3516 0.79688-1.4531 2.0859-2.4141 1.3125-0.98437 3.0234-1.4531 1.7344-0.49219 3.7266-0.49219 1.9688 0 3.7031 0.51563 1.7578 0.49218 3.0469 1.5 1.2891 1.0078 2.0391 2.5078t0.75 3.4922q0 1.6172-0.49219 2.7188-0.46875 1.0781-1.2422 1.8047-0.75 0.72657-1.7109 1.1953-0.96094 0.44531-1.9219 0.79687 0.9375 0.25781 1.9688 0.79688 1.0547 0.51562 1.9219 1.3828 0.89062 0.84375 1.4531 2.0625 0.5625 1.1953 0.5625 2.8125z" style="font-feature-settings:normal;font-variant-caps:normal;font-variant-ligatures:normal;font-variant-numeric:normal"/>
   </g>
  </g>
 </g>
</svg>
