<?xml version="1.0" encoding="UTF-8"?>
<!-- Created with Inkscape (http://www.inkscape.org/) -->
<svg width="26mm" height="26mm" version="1.1" viewBox="0 0 26 26" xmlns="http://www.w3.org/2000/svg" xmlns:cc="http://creativecommons.org/ns#" xmlns:dc="http://purl.org/dc/elements/1.1/" xmlns:rdf="http://www.w3.org/1999/02/22-rdf-syntax-ns#">
 <metadata>
  <rdf:RDF>
   <cc:Work rdf:about="">
    <dc:format>image/svg+xml</dc:format>
    <dc:type rdf:resource="http://purl.org/dc/dcmitype/StillImage"/>
    <dc:title/>
   </cc:Work>
  </rdf:RDF>
 </metadata>
 <g transform="translate(-54.28 -57.97)">
  <g transform="translate(-18.778 17.916)">
   <path d="m99.058 53.054a13 13 0 0 1-13 13 13 13 0 0 1-13-13 13 13 0 0 1 13-13 13 13 0 0 1 13 13z" fill="#ffc800"/>
   <g transform="matrix(.26458 0 0 .26458 34.38 -4.0533)" style="font-feature-settings:normal;font-variant-caps:normal;font-variant-ligatures:normal;font-variant-numeric:normal" aria-label="3">
    <path d="m205.5 222.49q0 1.6172-0.63281 3.2109-0.60937 1.5938-1.9219 2.8594-1.2891 1.2422-3.3281 2.0391-2.0391 0.77344-4.875 0.77344t-4.6875-0.77344q-1.8516-0.79687-2.9531-1.9922-1.0781-1.2188-1.5234-2.6953-0.44531-1.4766-0.44531-2.8828h5.1328q0.0469 0.98438 0.375 1.8281 0.35156 0.84375 0.96094 1.4766 0.60937 0.63281 1.4531 0.98437 0.86719 0.35157 1.9219 0.35157 1.0547 0 2.0156-0.35157 0.98438-0.375 1.7344-1.0312 0.75-0.67968 1.1953-1.6172 0.44531-0.96094 0.44531-2.1328 0-0.46875-0.21094-1.3359-0.21093-0.89063-0.79687-1.7578-0.5625-0.89062-1.5703-1.5234-0.98438-0.65625-2.5312-0.65625h-2.625v-3.2578q2.5312 0 3.9609-0.46875 1.4297-0.49218 2.1562-1.2422 0.72657-0.75 0.89063-1.6406 0.1875-0.91406 0.1875-1.7344 0-0.84375-0.21094-1.6641-0.21094-0.82031-0.70312-1.4766-0.46875-0.65625-1.2656-1.0547-0.79687-0.42187-1.9922-0.42187-2.3438 0-3.5156 1.0781-1.1484 1.0547-1.2891 3.2344h-5.1328q0.0937-1.9219 0.86719-3.3516 0.79688-1.4531 2.0859-2.4141 1.3125-0.98437 3.0234-1.4531 1.7344-0.49219 3.7266-0.49219 1.9688 0 3.7031 0.51563 1.7578 0.49218 3.0469 1.5 1.2891 1.0078 2.0391 2.5078t0.75 3.4922q0 1.6172-0.49219 2.7188-0.46875 1.0781-1.2422 1.8047-0.75 0.72657-1.7109 1.1953-0.96094 0.44531-1.9219 0.79687 0.9375 0.25781 1.9688 0.79688 1.0547 0.51562 1.9219 1.3828 0.89062 0.84375 1.4531 2.0625 0.5625 1.1953 0.5625 2.8125z" style="font-feature-settings:normal;font-variant-caps:normal;font-variant-ligatures:normal;font-variant-numeric:normal"/>
   </g>
  </g>
 </g>
</svg>
