<?xml version="1.0" encoding="UTF-8"?>
<!-- Created with Inkscape (http://www.inkscape.org/) -->
<svg width="26mm" height="26mm" version="1.1" viewBox="0 0 26 26" xmlns="http://www.w3.org/2000/svg" xmlns:cc="http://creativecommons.org/ns#" xmlns:dc="http://purl.org/dc/elements/1.1/" xmlns:rdf="http://www.w3.org/1999/02/22-rdf-syntax-ns#">
 <metadata>
  <rdf:RDF>
   <cc:Work rdf:about="">
    <dc:format>image/svg+xml</dc:format>
    <dc:type rdf:resource="http://purl.org/dc/dcmitype/StillImage"/>
    <dc:title/>
   </cc:Work>
  </rdf:RDF>
 </metadata>
 <g transform="translate(-39.917 -47.387)">
  <g transform="translate(-33.141 -85.555)">
   <path d="m99.058 145.94a13 13 0 0 1-13 13 13 13 0 0 1-13-13 13 13 0 0 1 13-13 13 13 0 0 1 13 13z" fill="#ffc800"/>
   <g transform="matrix(.26458 0 0 .26458 32.362 88.756)" style="font-feature-settings:normal;font-variant-caps:normal;font-variant-ligatures:normal;font-variant-numeric:normal" aria-label="21">
    <path d="m205.5 209.15q0 2.5078-1.125 4.7109-1.1016 2.1797-3.1641 4.2891-2.0391 2.0859-4.9219 4.1953-2.8828 2.1094-6.3984 4.4531h15.023v4.5703h-20.062v-4.2188q4.5234-3.5625 7.5-6.2578 3-2.6953 4.7812-4.7812 1.7812-2.1094 2.5078-3.75 0.72656-1.6641 0.72656-3.1641 0-0.70313-0.21094-1.5-0.1875-0.82032-0.70312-1.5-0.51563-0.70313-1.4062-1.1484-0.89063-0.46875-2.25-0.46875-1.3828 0-2.3672 0.51562-0.96094 0.51563-1.5938 1.3125-0.60937 0.77344-0.9375 1.7344-0.30469 0.96094-0.375 1.875h-5.1328q0.28125-4.5703 2.9531-6.8438 2.6719-2.2734 7.5938-2.2734 2.2969 0 4.0781 0.58594t3 1.6641q1.2188 1.0781 1.8516 2.6016 0.63281 1.5234 0.63281 3.3984z" style="font-feature-settings:normal;font-variant-caps:normal;font-variant-ligatures:normal;font-variant-numeric:normal"/>
    <path d="m216.13 231.37v-23.719q-0.60938 0.5625-1.5 1.125-0.86719 0.53906-1.8281 1.0312-0.96094 0.46875-1.8984 0.86719-0.9375 0.375-1.6406 0.58594v-4.6172q0.79687-0.32813 1.8281-0.98438 1.0547-0.65625 2.0391-1.3828 0.98437-0.75 1.7812-1.4297 0.79687-0.67968 1.0781-1.0547h5.0391v29.578z" style="font-feature-settings:normal;font-variant-caps:normal;font-variant-ligatures:normal;font-variant-numeric:normal"/>
   </g>
  </g>
 </g>
</svg>
