<?xml version="1.0" encoding="UTF-8"?>
<!-- Created with Inkscape (http://www.inkscape.org/) -->
<svg width="26mm" height="26mm" version="1.1" viewBox="0 0 26 26" xmlns="http://www.w3.org/2000/svg" xmlns:cc="http://creativecommons.org/ns#" xmlns:dc="http://purl.org/dc/elements/1.1/" xmlns:rdf="http://www.w3.org/1999/02/22-rdf-syntax-ns#">
 <metadata>
  <rdf:RDF>
   <cc:Work rdf:about="">
    <dc:format>image/svg+xml</dc:format>
    <dc:type rdf:resource="http://purl.org/dc/dcmitype/StillImage"/>
    <dc:title/>
   </cc:Work>
  </rdf:RDF>
 </metadata>
 <g transform="translate(-1.3631 -25.464)">
  <g transform="translate(-10.065 -107.48)">
   <path d="m37.428 145.94a13 13 0 0 1-13 13 13 13 0 0 1-13-13 13 13 0 0 1 13-13 13 13 0 0 1 13 13z" fill="#ffc800"/>
   <g transform="matrix(.26458 0 0 .26458 -30.126 88.756)" style="font-feature-settings:normal;font-variant-caps:normal;font-variant-ligatures:normal;font-variant-numeric:normal" aria-label="19">
    <path d="m195.17 231.37v-23.719q-0.60938 0.5625-1.5 1.125-0.86719 0.53906-1.8281 1.0312-0.96094 0.46875-1.8984 0.86719-0.9375 0.375-1.6406 0.58594v-4.6172q0.79687-0.32813 1.8281-0.98438 1.0547-0.65625 2.0391-1.3828 0.98437-0.75 1.7812-1.4297 0.79687-0.67968 1.0781-1.0547h5.0391v29.578z" style="font-feature-settings:normal;font-variant-caps:normal;font-variant-ligatures:normal;font-variant-numeric:normal"/>
    <path d="m224.08 215.48q0 4.3828-0.84375 7.4062-0.82031 3.0234-2.3203 4.9219-1.4766 1.875-3.5625 2.7188-2.0625 0.84375-4.5469 0.84375-1.9922 0-3.6328-0.53906-1.6172-0.5625-2.7891-1.5234-1.1484-0.98437-1.7812-2.2734-0.63282-1.2891-0.63282-2.7656h5.0859q0 0.65625 0.16406 1.3594 0.1875 0.67969 0.60938 1.2656 0.44531 0.5625 1.1719 0.9375 0.72657 0.375 1.8047 0.375 1.2656 0 2.2734-0.375 1.0078-0.39844 1.7578-1.5234 0.77344-1.125 1.3125-3.1172 0.53906-2.0156 0.89063-5.25-0.46875 0.5625-1.1484 1.0781-0.65625 0.49219-1.5234 0.89062-0.86719 0.375-1.9688 0.60938-1.0781 0.23437-2.3672 0.23437-1.0078 0-2.0859-0.21093-1.0547-0.21094-2.0859-0.67969t-1.9688-1.1953q-0.91406-0.75-1.6172-1.8047-0.67969-1.0547-1.1016-2.4609-0.39844-1.4062-0.39844-3.1875 0-2.6953 0.91406-4.6406 0.91407-1.9453 2.4141-3.2109 1.5-1.2656 3.4453-1.8516 1.9453-0.60938 4.0312-0.60938 1.3828 0 2.6953 0.28125 1.3359 0.25781 2.4844 0.91406 1.1719 0.63282 2.1328 1.7109 0.98437 1.0781 1.6875 2.7188 0.72656 1.6172 1.1016 3.8438 0.39844 2.2031 0.39844 5.1094zm-5.1797-4.5469q0-1.3828-0.44531-2.6016-0.42188-1.2188-1.1719-2.1094-0.72656-0.91406-1.7344-1.4297-1.0078-0.53907-2.1562-0.53907-1.125 0-2.1328 0.53907-1.0078 0.51562-1.7578 1.4297-0.72656 0.89063-1.1719 2.1094-0.42188 1.2188-0.42188 2.6016t0.42188 2.6016q0.44531 1.2188 1.1719 2.1328 0.75 0.91406 1.7578 1.4531 1.0078 0.51563 2.1328 0.51563 1.1484 0 2.1562-0.51563 1.0078-0.53906 1.7344-1.4531 0.75-0.91407 1.1719-2.1328 0.44531-1.2188 0.44531-2.6016z" style="font-feature-settings:normal;font-variant-caps:normal;font-variant-ligatures:normal;font-variant-numeric:normal"/>
   </g>
  </g>
 </g>
</svg>
