<?xml version="1.0" encoding="UTF-8"?>
<!-- Created with Inkscape (http://www.inkscape.org/) -->
<svg width="26mm" height="26mm" version="1.1" viewBox="0 0 26 26" xmlns="http://www.w3.org/2000/svg" xmlns:cc="http://creativecommons.org/ns#" xmlns:dc="http://purl.org/dc/elements/1.1/" xmlns:rdf="http://www.w3.org/1999/02/22-rdf-syntax-ns#">
 <metadata>
  <rdf:RDF>
   <cc:Work rdf:about="">
    <dc:format>image/svg+xml</dc:format>
    <dc:type rdf:resource="http://purl.org/dc/dcmitype/StillImage"/>
    <dc:title/>
   </cc:Work>
  </rdf:RDF>
 </metadata>
 <g transform="translate(-58.06 -79.893)">
  <g transform="translate(15.867 -53.049)">
   <path d="m68.193 145.94a13 13 0 0 1-13 13 13 13 0 0 1-13-13 13 13 0 0 1 13-13 13 13 0 0 1 13 13z" fill="#ffc800"/>
   <g transform="matrix(.26458 0 0 .26458 .59592 91.423)" style="font-feature-settings:normal;font-variant-caps:normal;font-variant-ligatures:normal;font-variant-numeric:normal" aria-label="20">
    <path d="m205.5 199.05q0 2.5078-1.125 4.7109-1.1016 2.1797-3.1641 4.2891-2.0391 2.0859-4.9219 4.1953-2.8828 2.1094-6.3984 4.4531h15.023v4.5703h-20.062v-4.2188q4.5234-3.5625 7.5-6.2578 3-2.6953 4.7812-4.7812 1.7812-2.1094 2.5078-3.75 0.72656-1.6641 0.72656-3.1641 0-0.70312-0.21094-1.5-0.1875-0.82031-0.70312-1.5-0.51563-0.70312-1.4062-1.1484-0.89063-0.46875-2.25-0.46875-1.3828 0-2.3672 0.51562-0.96094 0.51563-1.5938 1.3125-0.60937 0.77344-0.9375 1.7344-0.30469 0.96093-0.375 1.875h-5.1328q0.28125-4.5703 2.9531-6.8438 2.6719-2.2734 7.5938-2.2734 2.2969 0 4.0781 0.58594 1.7812 0.58593 3 1.6641 1.2188 1.0781 1.8516 2.6016t0.63281 3.3984z" style="font-feature-settings:normal;font-variant-caps:normal;font-variant-ligatures:normal;font-variant-numeric:normal"/>
    <path d="m227.85 206.06q0 3.1641-0.5625 5.9531-0.53906 2.7656-1.8047 4.8516-1.2422 2.0625-3.2578 3.2578-2.0156 1.1953-4.9453 1.1953-2.8828 0-4.875-1.1953t-3.2578-3.2578q-1.2422-2.0859-1.8047-4.8516-0.5625-2.7891-0.5625-5.9531t0.5625-5.9531q0.58594-2.7891 1.8281-4.8516 1.2656-2.0625 3.2578-3.2578t4.8516-1.1953q2.9062 0 4.9219 1.1953 2.0156 1.1953 3.2578 3.2578 1.2656 2.0625 1.8281 4.8516 0.5625 2.7891 0.5625 5.9531zm-5.2266 0q0-2.3906-0.21094-4.5-0.1875-2.1094-0.77343-3.6562-0.5625-1.5703-1.6172-2.4609-1.0547-0.91406-2.7422-0.91406-1.6641 0-2.6953 0.91406-1.0312 0.89063-1.6172 2.4609-0.58594 1.5469-0.79687 3.6562-0.21094 2.1094-0.21094 4.5 0 2.3906 0.1875 4.5 0.21094 2.1094 0.79687 3.6797 0.58594 1.5469 1.6172 2.4609 1.0547 0.91406 2.7188 0.91406t2.6953-0.91406q1.0547-0.91407 1.6406-2.4609 0.58594-1.5703 0.79687-3.6797 0.21094-2.1094 0.21094-4.5z" style="font-feature-settings:normal;font-variant-caps:normal;font-variant-ligatures:normal;font-variant-numeric:normal"/>
   </g>
  </g>
 </g>
</svg>
