<?xml version="1.0" encoding="UTF-8"?>
<!-- Created with Inkscape (http://www.inkscape.org/) -->
<svg width="26mm" height="26mm" version="1.1" viewBox="0 0 26 26" xmlns="http://www.w3.org/2000/svg" xmlns:cc="http://creativecommons.org/ns#" xmlns:dc="http://purl.org/dc/elements/1.1/" xmlns:rdf="http://www.w3.org/1999/02/22-rdf-syntax-ns#">
 <metadata>
  <rdf:RDF>
   <cc:Work rdf:about="">
    <dc:format>image/svg+xml</dc:format>
    <dc:type rdf:resource="http://purl.org/dc/dcmitype/StillImage"/>
    <dc:title/>
   </cc:Work>
  </rdf:RDF>
 </metadata>
 <g transform="translate(-10.435 -9.5893)">
  <g transform="translate(-154.76 -92.188)">
   <path d="m191.2 114.78a13 13 0 0 1-13 13 13 13 0 0 1-13-13 13 13 0 0 1 13-13 13 13 0 0 1 13 13z" fill="#d40000"/>
   <g transform="matrix(.26458 0 0 .26458 123.72 57.592)" fill="#fff" style="font-feature-settings:normal;font-variant-caps:normal;font-variant-ligatures:normal;font-variant-numeric:normal" aria-label="18">
    <path d="m195.17 231.37v-23.719q-0.60938 0.5625-1.5 1.125-0.86719 0.53906-1.8281 1.0312-0.96094 0.46875-1.8984 0.86719-0.9375 0.375-1.6406 0.58594v-4.6172q0.79687-0.32813 1.8281-0.98438 1.0547-0.65625 2.0391-1.3828 0.98437-0.75 1.7812-1.4297 0.79687-0.67968 1.0781-1.0547h5.0391v29.578z" style="font-feature-settings:normal;font-variant-caps:normal;font-variant-ligatures:normal;font-variant-numeric:normal"/>
    <path d="m223.52 222.93q0 1.8047-0.77344 3.3516-0.75 1.5469-2.1328 2.6719-1.3594 1.125-3.2578 1.7812-1.875 0.63281-4.125 0.63281-2.4141 0-4.3594-0.63281-1.9219-0.65625-3.2812-1.7812-1.3594-1.1484-2.0859-2.6719-0.72656-1.5469-0.72656-3.3516 0-1.2656 0.39844-2.4375 0.39844-1.1953 1.2188-2.1797 0.84375-1.0078 2.1094-1.7578 1.2656-0.75 3-1.1719-1.5938-0.35157-2.7656-1.0078-1.1719-0.67968-1.9453-1.5703-0.75-0.91406-1.125-2.0156-0.375-1.1016-0.375-2.3672 0-1.5703 0.67968-2.9297 0.70313-1.3828 1.9688-2.3906 1.2891-1.0312 3.0938-1.6172 1.8281-0.58594 4.1016-0.58594 2.4141 0 4.2422 0.58594 1.8516 0.58594 3.0938 1.6172 1.2422 1.0078 1.875 2.3906 0.63282 1.3594 0.63282 2.9297 0 1.1016-0.28125 2.1797-0.25782 1.0781-0.9375 2.0156-0.67969 0.91406-1.8281 1.6406-1.1484 0.70312-2.9062 1.0781 1.6875 0.42188 2.9062 1.1719t2.0156 1.7578q0.79687 1.0078 1.1719 2.2031 0.39844 1.1719 0.39844 2.4609zm-5.3438-14.086q0-1.2188-0.39844-2.1094-0.39844-0.91406-1.0781-1.5-0.67969-0.58594-1.5938-0.86719-0.89063-0.30469-1.9219-0.30469t-1.9219 0.32813q-0.89063 0.30469-1.5703 0.9375-0.67968 0.60937-1.0781 1.5-0.375 0.89062-0.375 2.0156 0 1.1016 0.375 1.9922 0.39844 0.86719 1.0781 1.5 0.67969 0.60938 1.5703 0.9375 0.89062 0.32813 1.9219 0.32813t1.9219-0.32813q0.91406-0.32812 1.5938-0.9375 0.67968-0.63281 1.0781-1.5 0.39844-0.89062 0.39844-1.9922zm0.53906 13.688q0-1.2891-0.42187-2.2734-0.42188-0.98438-1.1719-1.6406-0.72656-0.65625-1.7344-0.98437-1.0078-0.32813-2.1562-0.32813-1.1953 0-2.2031 0.35156-1.0078 0.32813-1.7578 1.0078-0.75 0.65625-1.1719 1.6406-0.42187 0.98438-0.42187 2.2734 0 1.3828 0.46875 2.4141t1.2422 1.7109q0.77343 0.65625 1.7344 0.98437 0.98438 0.32813 2.0156 0.32813 1.0547 0 2.0391-0.32813 1.0078-0.35156 1.7812-1.0312 0.79687-0.67968 1.2656-1.7109 0.49219-1.0312 0.49219-2.4141z" style="font-feature-settings:normal;font-variant-caps:normal;font-variant-ligatures:normal;font-variant-numeric:normal"/>
   </g>
  </g>
 </g>
</svg>
