<?xml version="1.0" encoding="UTF-8" standalone="no"?>
<svg
   xmlns:dc="http://purl.org/dc/elements/1.1/"
   xmlns:cc="http://creativecommons.org/ns#"
   xmlns:rdf="http://www.w3.org/1999/02/22-rdf-syntax-ns#"
   xmlns:svg="http://www.w3.org/2000/svg"
   xmlns="http://www.w3.org/2000/svg"
   xmlns:sodipodi="http://sodipodi.sourceforge.net/DTD/sodipodi-0.dtd"
   xmlns:inkscape="http://www.inkscape.org/namespaces/inkscape"
   id="IconsRepoEditor"
   width="48"
   height="31.999838"
   enable-background="new 0 0 257.832 257.832"
   version="1.1"
   viewBox="0 0 134.52 89.679546"
   xml:space="preserve"
   sodipodi:docname="hand_pointing_right.svg"
   style="fill:#000000;stroke:#000000;stroke-width:0"
   inkscape:version="0.92.4 (unknown)"><defs
   id="defs9" /><sodipodi:namedview
   pagecolor="#000000"
   bordercolor="#666666"
   borderopacity="1"
   objecttolerance="10"
   gridtolerance="10"
   guidetolerance="10"
   inkscape:pageopacity="1"
   inkscape:pageshadow="2"
   inkscape:window-width="1366"
   inkscape:window-height="713"
   id="namedview7"
   showgrid="false"
   fit-margin-top="0"
   fit-margin-left="0"
   fit-margin-right="0"
   fit-margin-bottom="0"
   inkscape:zoom="2.5652174"
   inkscape:cx="-35.822116"
   inkscape:cy="29.430994"
   inkscape:window-x="0"
   inkscape:window-y="27"
   inkscape:window-maximized="1"
   inkscape:current-layer="IconsRepoEditor" /><metadata
   id="metadata2"><rdf:RDF><cc:Work
       rdf:about=""><dc:format>image/svg+xml</dc:format><dc:type
         rdf:resource="http://purl.org/dc/dcmitype/StillImage" /><dc:title></dc:title></cc:Work></rdf:RDF></metadata>
  <path
   d="M 67.338924,88.778053 C 80.60179,86.431323 82.4044,76.439833 82.55292,72.136093 c 0.0424,-1.21828 0.65502,-2.32852 1.63843,-2.98167 4.90598,-3.25785 6.19687,-7.67572 6.19687,-11.41979 5.8e-4,-1.71422 -0.26978,-3.28639 -0.58772,-4.54352 -0.0928,-0.36907 -0.13866,-0.74481 -0.13866,-1.11631 0,-1.32208 0.5767,-2.5962 1.63088,-3.392 4.244,-3.20505 5.39159,-7.388 5.39159,-10.97364 0,-0.95909 -0.0824,-1.87568 -0.20886,-2.71883 -0.0342,-0.2252 -0.0505,-0.44858 -0.0505,-0.66772 0,-2.29452 1.78115,-4.23029 4.0537,-4.23333 l 24.53398,-0.0303 c 6.3396,-0.008 9.50737,-4.983 9.50737,-9.9575 0,-4.98421 -3.17879,-9.96842 -9.53058,-9.95992 -10.65032,0.0134 -42.639,0.054 -52.277491,0.0656 -1.629138,0.002 -3.101049,-1.0167496 -3.729382,-2.5889296 C 61.09097,-12.134687 25.690268,12.257663 19.62335,16.626363 c -0.591781,0.42612 -1.278132,0.67864 -1.994651,0.73509 L 3.9011155,18.429193 C 1.7834665,18.595523 5e-7,20.442063 5e-7,22.664353 v 0.005 l 0.202482,47.72544 c 0.0029,2.13003 1.585045,3.92801 3.603483,4.20541 l 14.1870855,1.94367 c 0.598163,0.0826 1.191104,0.30958 1.69818,0.65194 18.843011,12.75462 35.354288,13.75681 47.647673,11.58187 z"
   id="path4"
   inkscape:connector-curvature="0"
   style="fill:#ffffff;stroke-width:0" /> </svg>