<?xml version="1.0" encoding="UTF-8" standalone="no"?>
<svg
   xmlns:dc="http://purl.org/dc/elements/1.1/"
   xmlns:cc="http://creativecommons.org/ns#"
   xmlns:rdf="http://www.w3.org/1999/02/22-rdf-syntax-ns#"
   xmlns:svg="http://www.w3.org/2000/svg"
   xmlns="http://www.w3.org/2000/svg"
   xmlns:sodipodi="http://sodipodi.sourceforge.net/DTD/sodipodi-0.dtd"
   xmlns:inkscape="http://www.inkscape.org/namespaces/inkscape"
   id="IconsRepoEditor"
   width="92px"
   height="92px"
   enable-background="new 0 0 257.832 257.832"
   fill="#000000"
   stroke="#000000"
   stroke-width="0"
   version="1.1"
   viewBox="0 0 257.83 257.83"
   xml:space="preserve"
   sodipodi:docname="press-button.svg"
   inkscape:version="0.92.4 (unknown)"><defs
   id="defs11" /><sodipodi:namedview
   pagecolor="#000000"
   bordercolor="#666666"
   borderopacity="1"
   objecttolerance="10"
   gridtolerance="10"
   guidetolerance="10"
   inkscape:pageopacity="1"
   inkscape:pageshadow="2"
   inkscape:window-width="1366"
   inkscape:window-height="713"
   id="namedview9"
   showgrid="false"
   inkscape:zoom="2.5652174"
   inkscape:cx="46"
   inkscape:cy="46"
   inkscape:window-x="0"
   inkscape:window-y="27"
   inkscape:window-maximized="1"
   inkscape:current-layer="IconsRepoEditor" /><metadata
   id="metadata2"><rdf:RDF><cc:Work
       rdf:about=""><dc:format>image/svg+xml</dc:format><dc:type
         rdf:resource="http://purl.org/dc/dcmitype/StillImage" /><dc:title></dc:title></cc:Work></rdf:RDF></metadata>
 <path
   d="m62.288 89.305c1.367 0 2.741-0.465 3.867-1.415 2.532-2.138 2.853-5.924 0.715-8.455-6.228-7.377-9.657-16.765-9.657-26.435 0-22.608 18.393-41 41-41s41 18.392 41 41c0 6.308-1.392 12.354-4.137 17.974-1.455 2.978-0.221 6.57 2.757 8.024 2.977 1.459 6.57 0.22 8.024-2.757 3.554-7.274 5.355-15.093 5.355-23.241 0-29.225-23.775-53-53-53s-53 23.775-53 53c0 12.5 4.435 24.637 12.487 34.175 1.188 1.406 2.883 2.13 4.589 2.13z"
   fill="#fff"
   id="path4" /> <path
   d="m211.13 141.76c-3.866-22.86-20.326-25.967-27.416-26.223-2.007-0.073-3.836-1.129-4.912-2.824-5.367-8.456-12.645-10.681-18.813-10.681-2.824-1e-3 -5.414 0.465-7.485 1.013-0.608 0.16-1.227 0.239-1.839 0.239-2.178 0-4.277-0.994-5.588-2.811-5.28-7.315-12.171-9.293-18.078-9.293-1.58 0-3.09 0.142-4.479 0.36-0.371 0.059-0.739 0.087-1.1 0.087-3.78 0-6.969-3.07-6.974-6.987l-0.05-42.287c-0.014-10.927-8.209-16.387-16.404-16.387-8.211 0-16.422 5.479-16.408 16.427 0.022 18.357 0.089 73.493 0.108 90.106 4e-3 2.808-1.675 5.345-4.265 6.428-32.541 13.602 7.643 74.619 14.84 85.076 0.702 1.02 1.118 2.203 1.211 3.438l1.759 23.661c0.274 3.65 3.316 6.724 6.977 6.724h9e-3l78.623-0.349c3.509-5e-3 6.471-2.732 6.928-6.211l3.202-24.453c0.136-1.031 0.51-2.053 1.074-2.927 21.012-32.478 22.663-60.937 19.08-82.126z"
   fill="#fff"
   id="path6" /> </svg>