<?xml version="1.0" encoding="UTF-8"?>
<!-- Generator: Adobe Illustrator 19.0.0, SVG Export Plug-In . SVG Version: 6.00 Build 0)  -->
<svg width="92" height="92" version="1.1" viewBox="0 0 92 92" xml:space="preserve" xmlns="http://www.w3.org/2000/svg" xmlns:cc="http://creativecommons.org/ns#" xmlns:dc="http://purl.org/dc/elements/1.1/" xmlns:rdf="http://www.w3.org/1999/02/22-rdf-syntax-ns#"><metadata><rdf:RDF><cc:Work rdf:about=""><dc:format>image/svg+xml</dc:format><dc:type rdf:resource="http://purl.org/dc/dcmitype/StillImage"/><dc:title/></cc:Work></rdf:RDF></metadata>
<g transform="scale(.17969)" fill="#fff">
	<g fill="#fff">
		<g fill="#fff">
			<path d="m477.9 128.26c-21.639-37.511-52.679-69.173-89.763-91.563l-7.8 12.919c15.644 9.445 29.932 20.414 42.735 32.653l-29.159 29.159c-34.199-32.638-79.925-53.283-130.37-55.166v-41.044c33.523 1.015 65.771 8.795 95.964 23.182l6.492-13.623c-34.496-16.439-71.506-24.774-110-24.774-68.381 0-132.67 26.628-181.02 74.981-48.352 48.352-74.981 112.64-74.981 181.02s26.628 132.67 74.981 181.02c48.352 48.353 112.64 74.981 181.02 74.981s132.67-26.628 181.02-74.981 74.981-112.64 74.981-181.02c0-44.899-11.792-89.072-34.101-127.74zm-44.252-35.226c38.724 41.972 61.358 96.582 63.144 155.42h-41.05c-1.807-48.424-20.911-92.498-51.313-126.2zm-185.19-77.81v41.038c-49.433 1.844-94.328 21.719-128.29 53.232l-29.001-29.002c41.416-38.922 96.556-63.39 157.29-65.268zm-167.96 75.939 29.003 29.002c-31.513 33.965-51.388 78.859-53.232 128.29h-41.039c1.878-60.737 26.346-115.88 65.268-157.29zm-65.268 172.39h41.037c1.882 50.441 22.528 96.167 55.166 130.37l-28.985 28.985c-40.055-41.639-65.308-97.604-67.218-159.35zm233.23 233.23c-59.727-1.847-114.04-25.536-155.22-63.336l29.016-29.016c33.706 30.402 77.78 49.507 126.2 51.313v41.039zm-177.26-240.78c0-101.9 82.904-184.81 184.81-184.81s184.81 82.904 184.81 184.81c0 101.9-82.904 184.81-184.81 184.81s-184.81-82.903-184.81-184.81zm192.35 240.78v-41.038c49.433-1.844 94.328-21.719 128.29-53.232l29.003 29.002c-41.417 38.921-96.558 63.39-157.3 65.268zm167.96-75.94-29.003-29.002c31.513-33.964 51.388-78.859 53.232-128.29h41.038c-1.877 60.737-26.346 115.88-65.267 157.29z"/>
			<path d="m256 136.25c-66.031 0-119.75 53.72-119.75 119.75 0 31.518 12.151 61.277 34.214 83.795l10.779-10.562c-19.284-19.681-29.903-45.688-29.903-73.233 0-57.709 46.95-104.66 104.66-104.66s104.66 46.95 104.66 104.66-46.95 104.66-104.66 104.66c-21.528 0-42.207-6.488-59.801-18.765l-8.635 12.377c20.139 14.052 43.804 21.479 68.436 21.479 66.031 0 119.75-53.72 119.75-119.75 1e-3 -66.03-53.719-119.75-119.75-119.75z"/>
			<path d="m247.99 96.172h16.029v15.091h-16.029z"/>
			<path d="m247.99 400.73h16.029v15.091h-16.029z"/>
			<path d="m95.709 248.45h16.03v15.091h-16.03z"/>
			<path d="m135.78 136.25h16.029v15.091h-16.029z"/>
			<path d="m368.21 144.26h16.029v15.091h-16.029z"/>
			<path d="m368.21 352.64h16.029v15.091h-16.029z"/>
			<path d="m127.76 352.64h16.029v15.091h-16.029z"/>
			<path d="m400.26 248.45h16.029v15.091h-16.029z"/>
			<path d="m184.34 256h15.091c0-31.194 25.378-56.571 56.571-56.571v-15.091c-39.514-1e-3 -71.662 32.147-71.662 71.662z"/>
			<path d="m256 327.66c39.515 0 71.663-32.148 71.663-71.663h-15.091c0 31.194-25.379 56.571-56.571 56.571v15.092z"/>
		</g>
	</g>
</g>
</svg>
