<?xml version="1.0" encoding="UTF-8"?>
<!-- Generator: Adobe Illustrator 19.0.0, SVG Export Plug-In . SVG Version: 6.00 Build 0)  -->
<svg width="92" height="92" version="1.1" viewBox="0 0 92 92" xml:space="preserve" xmlns="http://www.w3.org/2000/svg" xmlns:cc="http://creativecommons.org/ns#" xmlns:dc="http://purl.org/dc/elements/1.1/" xmlns:rdf="http://www.w3.org/1999/02/22-rdf-syntax-ns#"><metadata><rdf:RDF><cc:Work rdf:about=""><dc:format>image/svg+xml</dc:format><dc:type rdf:resource="http://purl.org/dc/dcmitype/StillImage"/><dc:title/></cc:Work></rdf:RDF></metadata>
<g transform="matrix(.19212 0 0 .19875 7.5208e-7 -1.5864)" fill="#fff">
	<g fill="#fff">
		<path d="m406.87 160.02h-0.016-400c-3.782-4e-3 -6.852 3.058-6.856 6.84v0.016 192c-4e-3 3.782 3.058 6.852 6.84 6.856h0.016 272c3.786 0 6.856-3.07 6.856-6.856s-3.07-6.856-6.856-6.856h-265.14v-178.29h386.29v17.144c-4e-3 3.782 3.058 6.852 6.84 6.856h0.016c3.782 4e-3 6.852-3.058 6.856-6.84v-0.016-24c4e-3 -3.782-3.058-6.851-6.84-6.856z" fill="#fff"/>
	</g>
	<g fill="#fff">
		<path d="m360.36 128.18-320-72c-1.776-0.397-3.637-0.075-5.176 0.896-1.537 0.979-2.624 2.526-3.024 4.304l-16 72c-0.822 3.698 1.51 7.362 5.208 8.184s7.362-1.51 8.184-5.208l14.504-65.288 313.3 70.488c0.496 0.115 1.003 0.172 1.512 0.168 3.786-7e-3 6.85-3.082 6.844-6.868-6e-3 -3.201-2.226-5.971-5.348-6.676z" fill="#fff"/>
	</g>
	<g fill="#fff">
		<path d="m321.5 88.513-192-80c-3.337-1.391-7.182 0.038-8.8 3.272l-16 32c-1.807 3.342-0.563 7.517 2.78 9.324 3.342 1.807 7.517 0.563 9.324-2.78 0.071-0.131 0.138-0.265 0.2-0.401v0.016l13.128-26.272 186.07 77.528c3.504 1.462 7.53-0.192 8.992-3.696 1.462-3.502-0.192-7.528-3.696-8.991z" fill="#fff"/>
	</g>
	<g fill="#fff">
		<path d="m326.35 192.02h-63.496c-3.786 0-6.856 3.07-6.856 6.856s3.07 6.856 6.856 6.856h63.496c3.786 0 6.856-3.07 6.856-6.856s-3.07-6.856-6.856-6.856z" fill="#fff"/>
	</g>
	<g fill="#fff">
		<path d="m198.86 192.47c-38.881 0-70.4 31.519-70.4 70.4 0.04 38.864 31.536 70.36 70.4 70.4 38.881 0 70.4-31.519 70.4-70.4s-31.519-70.4-70.4-70.4zm0 128c-31.812 0-57.6-25.788-57.6-57.6 0.035-31.797 25.803-57.565 57.6-57.6 31.812 0 57.6 25.788 57.6 57.6s-25.788 57.6-57.6 57.6z" fill="#fff"/>
	</g>
	<g fill="#fff">
		<path d="m390.86 214.87c-42.4 0-88 10.016-88 32v192c0 21.984 45.6 32 88 32s88-10.016 88-32v-192c0-21.984-45.6-32-88-32zm72 223.88c-1.208 4.44-25.2 16.12-72 16.12s-70.792-11.68-72-16v-12.576c17.024 8.576 45.144 12.576 72 12.576s54.984-4.04 72-12.584zm0-32c-1.208 4.44-25.2 16.12-72 16.12s-70.792-11.68-72-16v-12.576c17.024 8.576 45.144 12.576 72 12.576s54.984-4.04 72-12.584zm0-32c-1.208 4.44-25.2 16.12-72 16.12s-70.792-11.68-72-16v-12.576c17.024 8.576 45.144 12.576 72 12.576s54.984-4.04 72-12.584zm0-32c-1.208 4.44-25.2 16.12-72 16.12s-70.792-11.68-72-16v-12.576c17.024 8.576 45.144 12.576 72 12.576s54.984-4.04 72-12.584zm0-32c-1.208 4.44-25.2 16.12-72 16.12s-70.792-11.68-72-16v-12.576c17.024 8.536 45.144 12.576 72 12.576s54.984-4.04 72-12.584zm0-32c-1.208 4.44-25.2 16.12-72 16.12s-70.792-11.68-72-16v-12.576c17.024 8.536 45.144 12.576 72 12.576s54.984-4.04 72-12.584zm-72-15.88c-46.728 0-70.712-11.648-72-15.856v-0.048c1.288-4.456 25.272-16.096 72-16.096 46.4 0 70.4 11.472 72 16-1.6 4.528-25.6 16-72 16z" fill="#fff"/>
	</g>
	<g fill="#fff">
		<path d="m134.86 320.01h-60.472l-28.672-31.36v-52l31.664-30.92h57.48c3.786 0 6.856-3.07 6.856-6.856s-3.07-6.856-6.856-6.856h-60.264c-1.792-4e-3 -3.515 0.694-4.8 1.944l-35.736 34.856c-1.335 1.56-2.067 3.547-2.064 5.6v56.896c0 1.711 0.639 3.36 1.792 4.624l32.504 35.552c1.299 1.422 3.137 2.233 5.064 2.232h63.504c3.786 0 6.856-3.07 6.856-6.856s-3.069-6.856-6.856-6.856z" fill="#fff"/>
	</g>
</g>
</svg>
