<?xml version="1.0" encoding="UTF-8" standalone="no"?>
<svg
   xmlns:dc="http://purl.org/dc/elements/1.1/"
   xmlns:cc="http://creativecommons.org/ns#"
   xmlns:rdf="http://www.w3.org/1999/02/22-rdf-syntax-ns#"
   xmlns:svg="http://www.w3.org/2000/svg"
   xmlns="http://www.w3.org/2000/svg"
   xmlns:sodipodi="http://sodipodi.sourceforge.net/DTD/sodipodi-0.dtd"
   xmlns:inkscape="http://www.inkscape.org/namespaces/inkscape"
   id="IconsRepoEditor"
   width="92px"
   height="92px"
   enable-background="new 0 0 257.832 257.832"
   fill="#000000"
   stroke="#000000"
   stroke-width="0"
   version="1.1"
   viewBox="0 0 257.83 257.83"
   xml:space="preserve"
   sodipodi:docname="press-button-text.svg"
   inkscape:version="0.92.5 (0.92.5+68)"><defs
   id="defs11" /><sodipodi:namedview
   pagecolor="#000000"
   bordercolor="#666666"
   borderopacity="1"
   objecttolerance="10"
   gridtolerance="10"
   guidetolerance="10"
   inkscape:pageopacity="1"
   inkscape:pageshadow="2"
   inkscape:window-width="1366"
   inkscape:window-height="713"
   id="namedview9"
   showgrid="false"
   inkscape:zoom="2.5652174"
   inkscape:cx="-28.457627"
   inkscape:cy="44.440678"
   inkscape:window-x="0"
   inkscape:window-y="27"
   inkscape:window-maximized="1"
   inkscape:current-layer="IconsRepoEditor" /><metadata
   id="metadata2"><rdf:RDF><cc:Work
       rdf:about=""><dc:format>image/svg+xml</dc:format><dc:type
         rdf:resource="http://purl.org/dc/dcmitype/StillImage" /><dc:title /></cc:Work></rdf:RDF></metadata>
  <path
   d="m211.13 141.76c-3.866-22.86-20.326-25.967-27.416-26.223-2.007-0.073-3.836-1.129-4.912-2.824-5.367-8.456-12.645-10.681-18.813-10.681-2.824-1e-3 -5.414 0.465-7.485 1.013-0.608 0.16-1.227 0.239-1.839 0.239-2.178 0-4.277-0.994-5.588-2.811-5.28-7.315-12.171-9.293-18.078-9.293-1.58 0-3.09 0.142-4.479 0.36-0.371 0.059-0.739 0.087-1.1 0.087-3.78 0-6.969-3.07-6.974-6.987l-0.05-42.287c-0.014-10.927-8.209-16.387-16.404-16.387-8.211 0-16.422 5.479-16.408 16.427 0.022 18.357 0.089 73.493 0.108 90.106 4e-3 2.808-1.675 5.345-4.265 6.428-32.541 13.602 7.643 74.619 14.84 85.076 0.702 1.02 1.118 2.203 1.211 3.438l1.759 23.661c0.274 3.65 3.316 6.724 6.977 6.724h9e-3l78.623-0.349c3.509-5e-3 6.471-2.732 6.928-6.211l3.202-24.453c0.136-1.031 0.51-2.053 1.074-2.927 21.012-32.478 22.663-60.937 19.08-82.126z"
   fill="#fff"
   id="path6" /> <path
   style="fill:none;stroke:#f00000;stroke-width:2.80250001px;stroke-linecap:butt;stroke-linejoin:miter;stroke-opacity:0"
   d="M 21.85,38.237501 H 68.8275"
   id="path4518"
   inkscape:connector-curvature="0" /><path
   style="fill:none;stroke:#ffffff;stroke-width:16.815;stroke-linecap:round;stroke-linejoin:miter;stroke-miterlimit:4;stroke-dasharray:none;stroke-opacity:1"
   d="M 21.85,38.237501 H 231.61"
   id="path4532"
   inkscape:connector-curvature="0" /><path
   style="fill:none;stroke:#ffffff;stroke-width:15.71520996;stroke-linecap:round;stroke-linejoin:miter;stroke-miterlimit:4;stroke-dasharray:none;stroke-opacity:1"
   d="M 56.466515,83.8375 H 239.685"
   id="path4532-9"
   inkscape:connector-curvature="0" /><path
   style="fill:none;stroke:#ffffff;stroke-width:16.81500053;stroke-linecap:round;stroke-linejoin:miter;stroke-miterlimit:4;stroke-dasharray:none;stroke-opacity:1"
   d="m 20.4725,128.1075 h 209.76"
   id="path4532-3"
   inkscape:connector-curvature="0" /><path
   style="fill:none;stroke:#ffffff;stroke-width:16.81500053;stroke-linecap:round;stroke-linejoin:miter;stroke-miterlimit:4;stroke-dasharray:none;stroke-opacity:1"
   d="m 26.6475,215.175 h 209.76"
   id="path4532-3-6"
   inkscape:connector-curvature="0" /><path
   style="fill:none;stroke:#ffffff;stroke-width:15.71520996;stroke-linecap:round;stroke-linejoin:miter;stroke-miterlimit:4;stroke-dasharray:none;stroke-opacity:1"
   d="M 64.28576,173.2325 H 247.50424"
   id="path4532-9-9-0"
   inkscape:connector-curvature="0" /></svg>