<?xml version="1.0" encoding="UTF-8"?>
<!-- Created with Inkscape (http://www.inkscape.org/) -->
<svg width="640" height="320" version="1.1" viewBox="0 0 169.33 84.667" xmlns="http://www.w3.org/2000/svg" xmlns:cc="http://creativecommons.org/ns#" xmlns:dc="http://purl.org/dc/elements/1.1/" xmlns:rdf="http://www.w3.org/1999/02/22-rdf-syntax-ns#">
 <metadata>
  <rdf:RDF>
   <cc:Work rdf:about="">
    <dc:format>image/svg+xml</dc:format>
    <dc:type rdf:resource="http://purl.org/dc/dcmitype/StillImage"/>
    <dc:title/>
   </cc:Work>
  </rdf:RDF>
 </metadata>
 <g transform="translate(0 -212.33)">
  <g transform="matrix(1.0595 0 0 .977 -85.898 100.58)" style="font-feature-settings:normal;font-variant-caps:normal;font-variant-ligatures:normal;font-variant-numeric:normal" aria-label="?">
   <path d="m174.62 142.9q0 2.6667-0.875 4.875-0.83333 2.1667-2.125 4.125-1.2917 1.9167-2.7917 3.6667t-2.7917 3.5q-1.2917 1.7083-2.1667 3.5-0.83333 1.7917-0.83333 3.7917 0 0.25 0.0417 0.625 0.0417 0.33334 0.125 0.66667l0.16667 0.83333-5.2083-0.0833q-0.75-1.5417-1.25-3.2083-0.45834-1.7083-0.45834-4.2083 0-1.6667 0.5-3.2917 0.5-1.6667 1.25-3.2083 0.75-1.5833 1.625-3.0417 0.875-1.4583 1.625-2.75 0.75-1.3333 1.25-2.5 0.5-1.1667 0.5-2.1667 0-2.2083-1.4583-3.6667-1.4583-1.4583-4.0833-1.4583-1.25 0-2.1667 0.33333-0.875 0.29167-1.5 0.79167-0.58333 0.5-0.95833 1.125-0.375 0.58333-0.58334 1.1667h-3.0834q-0.95833-0.83334-1.5-2.0833t-0.54167-2.2083q0-1.25 0.70834-2.6667 0.75-1.4583 2.2917-2.6667 1.5833-1.2083 4.0417-2 2.4583-0.83334 5.9167-0.83334 3.4583 0 6.125 1.125 2.7083 1.0833 4.5 2.9167 1.8333 1.8333 2.75 4.2083 0.95833 2.3333 0.95833 4.7917zm-7.5833 36.083q0 1.375-0.5 2.5833-0.5 1.2083-1.375 2.0833t-2.0833 1.4167q-1.1667 0.5-2.5 0.5-1.375 0-2.5833-0.5-1.2083-0.54167-2.0833-1.4167t-1.4167-2.0833q-0.5-1.2083-0.5-2.5833 0-1.3333 0.5-2.5 0.54167-1.2083 1.4167-2.0833t2.0833-1.375 2.5833-0.5q1.3333 0 2.5 0.5 1.2083 0.5 2.0833 1.375t1.375 2.0833q0.5 1.1667 0.5 2.5z" style="font-feature-settings:normal;font-variant-caps:normal;font-variant-ligatures:normal;font-variant-numeric:normal"/>
  </g>
 </g>
</svg>
