<?xml version="1.0" encoding="UTF-8"?>
<!-- Generator: Adobe Illustrator 19.0.0, SVG Export Plug-In . SVG Version: 6.00 Build 0)  -->
<svg width="92" height="92" version="1.1" viewBox="0 0 92 92" xml:space="preserve" xmlns="http://www.w3.org/2000/svg" xmlns:cc="http://creativecommons.org/ns#" xmlns:dc="http://purl.org/dc/elements/1.1/" xmlns:rdf="http://www.w3.org/1999/02/22-rdf-syntax-ns#"><metadata><rdf:RDF><cc:Work rdf:about=""><dc:format>image/svg+xml</dc:format><dc:type rdf:resource="http://purl.org/dc/dcmitype/StillImage"/><dc:title/></cc:Work></rdf:RDF></metadata>
<g transform="matrix(.14063 0 0 .14063 9.9996 9.9996)">
		<path d="m209.3 106.47c-27.041-19.819-54.785-44.246-74.531-73.865l-17.286-25.928c-3.662-5.493-10.488-7.939-16.831-6.035-6.328 1.919-10.649 7.749-10.649 14.356v235.34c-8.86-5.167-19.023-8.344-30-8.344-33.091 0-60 26.909-60 60s26.909 59.999 60 59.999 60-26.909 60-60v-237.75c21.196 26.792 47.71 48.93 71.558 66.42 11.718 8.584 18.442 21.827 18.442 36.328 0 24.814-20.186 45-45 45-8.291 0-15 6.709-15 15s6.709 15 15 15c41.353 0 75-33.647 75-75 0-23.804-11.47-46.421-30.703-60.527z"/>
		<path d="m492.88 122.57-212 60c-6.445 1.846-10.884 7.734-10.884 14.429v203.34c-8.86-5.167-19.023-8.344-30-8.344-33.091 0-60 26.909-60 60s26.909 60 60 60 60-26.909 60-60v-183.68l182-51.429v123.45c-8.86-5.167-19.023-8.344-30-8.344-33.091 0-60 26.909-60 60s26.909 60 60 60 60-26.909 60-60v-255c0-9.921-9.49-17.148-19.116-14.429z"/>
</g>
</svg>
